<?xml version="1.0" encoding="utf-8"?>
<!-- Generator: Adobe Illustrator 23.0.3, SVG Export Plug-In . SVG Version: 6.00 Build 0)  -->
<svg version="1.1" id="Layer_1" xmlns="http://www.w3.org/2000/svg" xmlns:xlink="http://www.w3.org/1999/xlink" x="0px" y="0px"
	 viewBox="0 0 120 120" style="enable-background:new 0 0 120 120;" xml:space="preserve">
<style type="text/css">
	.st0{fill:#F64E85;}
	.st1{fill:#F78A4C;}
	.st2{fill:#A0F0FD;}
	.st3{fill:#8732F8;}
	.st4{fill:#CB4A74;}
	.st5{fill:#D4ED77;}
	.st6{fill:#FFD331;}
	.st7{fill:#66A0D1;}
</style>
<g>
	<path class="st0" d="M56.4,68.4c-6.8-0.9-19.8,10.8-24.9,22.5c-1.3,3-3.7,8.8-1.9,14.5c0.4,1.3,2.8,8.2,11.1,9.4c0.1,0,0.2,0,0.4,0
		c5.8,0.7,14-1.3,18.9-6.7c4.9-5.4,5.2-12.5,5.2-15.3c0-0.8,0-1.5,0-2.2c-0.3-7.3-1.7-15.4-5.8-20.7c-0.9-1.1-1.7-1.3-2.6-1.5
		C56.6,68.4,56.5,68.4,56.4,68.4L56.4,68.4z"/>
	<path class="st1" d="M32.8,41.1c-3.1-0.4-8.5-0.7-15,2.4c-1.6,0.8-9.9,5-13.6,13.4c-2.6,5.9-2.8,13.4,2,16.7c1.4,1,3.1,1.5,4.9,1.7
		c4.1,0.5,8.5-0.5,10.6-1c0.9-0.2,1.7-0.4,2.5-0.7c8.2-2.3,17.7-6,24.8-11.5c1.5-1.2,1.9-2,2.4-3c3.3-6.9-6.2-16.4-17.9-18
		C33.3,41.2,33.1,41.2,32.8,41.1L32.8,41.1z"/>
	<path class="st2" d="M78.9,5.1c-5.8-0.7-14,1.3-18.9,6.7c-4.9,5.4-5.2,12.5-5.2,15.3c0,0.8,0,1.5,0,2.2c0.3,7.3,1.7,15.4,5.8,20.7
		c0.9,1.1,1.7,1.3,2.6,1.5c0.1,0,0.2,0,0.3,0c6.8,0.9,19.8-10.8,24.9-22.5c1.3-3,3.7-8.8,1.9-14.5c-0.4-1.3-2.8-8.2-11.1-9.4
		C79.1,5.2,79,5.2,78.9,5.1L78.9,5.1z"/>
	<path class="st3" d="M108.8,44.6c-4.1-0.5-8.5,0.5-10.6,1c-0.8,0.2-1.7,0.4-2.5,0.7c-8.2,2.3-17.7,6-24.8,11.5
		c-1.5,1.2-1.9,2-2.4,3c-3.3,6.9,6.2,16.4,17.9,18c0.2,0,0.5,0.1,0.8,0.1c3.1,0.4,8.5,0.7,14.9-2.4c1.6-0.8,9.9-5,13.6-13.4
		c2.6-5.9,2.8-13.4-2-16.7C112.4,45.4,110.6,44.8,108.8,44.6L108.8,44.6z"/>
	<path class="st4" d="M75.8,80.3c-0.5-0.1-1-0.1-1.6-0.1c-0.8,0-1.3,0.2-1.8,0.5c-3.6,1.9-5.2,9.4-3.1,14.3c0.5,1.2,1.6,3.6,4.6,4.5
		c0.2,0.1,0.8,0.2,1.6,0.3c1.6,0.2,4.2,0.1,7.1-1.5c3-1.7,6.1-5,6.4-8.1c0.2-3-2.3-5.1-3.4-5.8c-0.3-0.2-0.6-0.4-0.8-0.6
		C82.3,82.2,79.2,80.7,75.8,80.3L75.8,80.3z"/>
	<path class="st5" d="M30.2,76.1c-3.1-0.4-7.9,0.6-11.8,2.8c-1.5,0.9-4.4,2.6-6.4,5.8c-0.4,0.7-2.7,4.6-1.2,8.1
		c0.8,1.9,2.7,3.6,5.2,3.9c0.7,0.1,1.4,0.1,2.1-0.1c3.3-0.7,6.3-3.7,7.4-4.9c0.3-0.3,0.6-0.7,0.9-1c2.9-3.3,5.9-7.4,7.1-11.2
		c0.2-0.8,0.1-1.2,0-1.6C33,76.9,31.8,76.3,30.2,76.1L30.2,76.1z"/>
	<path class="st6" d="M44.4,20.2c-1.6-0.2-4.2-0.1-7.1,1.5c-3,1.7-6.1,5-6.4,8.1c-0.2,3,2.3,5.1,3.4,5.8c0.3,0.2,0.6,0.4,0.8,0.6
		c2.5,1.6,5.6,3.1,9,3.6c0.5,0.1,1,0.1,1.6,0.1c0.8,0,1.3-0.2,1.8-0.5c3.6-1.9,5.2-9.4,3.1-14.3c-0.5-1.2-1.6-3.6-4.6-4.5
		C45.8,20.5,45.2,20.3,44.4,20.2L44.4,20.2z"/>
	<path class="st7" d="M104.1,23.3c-0.7-0.1-1.4-0.1-2.1,0.1c-3.3,0.7-6.3,3.7-7.4,4.9c-0.3,0.3-0.6,0.7-0.9,1
		c-2.9,3.3-5.9,7.4-7.1,11.2c-0.3,0.8-0.1,1.2,0,1.6c0.4,1,1.6,1.6,3.2,1.8c3.1,0.4,7.9-0.6,11.8-2.8c1.5-0.9,4.4-2.6,6.4-5.8
		c0.4-0.7,2.7-4.6,1.2-8.1C108.4,25.3,106.5,23.6,104.1,23.3L104.1,23.3z"/>
</g>
</svg>
